<svg xmlns="http://www.w3.org/2000/svg" viewBox="0 0 60.069 47.976"> <defs> <linearGradient id="n40d02062a" x1=".5" x2=".5" y2="1" gradientUnits="objectBoundingBox"> <stop offset="0" stop-color="#fff"/> <stop offset="1" stop-color="#d9f88b"/> </linearGradient> </defs> <g> <g> <g> <path fill="url(#n40d02062a)" d="M249.1 192.237a52.06 52.06 0 0 1-13.492-13.492 8.5 8.5 0 0 1-2.417-5.863 8.265 8.265 0 0 1 2.417-5.863A71.068 71.068 0 0 1 249.1 153.53a8.493 8.493 0 0 1 5.863-2.419 8.261 8.261 0 0 1 5.863 2.419 81.159 81.159 0 0 1 13.492 13.49 8.493 8.493 0 0 1 2.419 5.863 8.266 8.266 0 0 1-2.419 5.863 80.63 80.63 0 0 1-13.492 13.492 8.542 8.542 0 0 1-3.566 2.1 8.071 8.071 0 0 1-2.3.32 8.568 8.568 0 0 1-2.854-.559 9.161 9.161 0 0 1-3.006-1.862z" transform="translate(-815.5 -272) translate(764.312 54.425) translate(-165.479 66.464)"/> <path fill="#fff" stroke="#000" stroke-miterlimit="10" d="M1541.175 514.144a7.4 7.4 0 0 1-4.853-2.426 53.991 53.991 0 0 1-7.8-8.154c-.886-.982-7.609-8.519-7.951-14.649a11.49 11.49 0 0 1 .346-3.437 10.778 10.778 0 0 1 4.137-5.661c4.415-2.9 11.51-1.937 14.164 1.369.635.794 1.293 2.061 2.334 2.052s1.609-1.26 2.332-2.146a10.726 10.726 0 0 1 12.7-1.68 9.8 9.8 0 0 1 3.826 4.853 10.762 10.762 0 0 1 .615 4.648c-.365 6.391-5.711 12.437-6.844 13.671a56.952 56.952 0 0 1-8.533 9.317 6.981 6.981 0 0 1-4.473 2.243z" transform="translate(-815.5 -272) translate(764.312 54.425) translate(-1468.867 -249.095)"/> <path fill="none" stroke="#000" stroke-linejoin="round" d="M-5618.2 4529.814h4.359l1.288 1.689 3.77-8.934.683 13.242 4.886-7.278 3.464 2.97 3.5-8.934.269 4.836.469 8.405 3.711-6.279h7.419" transform="translate(-815.5 -272) translate(764.312 54.425) translate(5673.522 -4280.776)"/> <path fill="#0097ff" stroke="#fff" d="M104.67 1199.066v-1.856a.8.8 0 0 0-.8-.8h-1.856a2.069 2.069 0 0 1 0-4.139h1.857a.8.8 0 0 0 .8-.8v-1.856a2.069 2.069 0 1 1 4.137 0v1.857a.8.8 0 0 0 .8.8h1.855a2.069 2.069 0 0 1 0 4.139h-1.857a.8.8 0 0 0-.8.8v1.854a2.069 2.069 0 1 1-4.139 0z" transform="translate(-815.5 -272) translate(764.312 54.425) translate(-33.86 -963.009)"/> </g> </g> </g></svg>