<svg xmlns="http://www.w3.org/2000/svg" width="33.786" height="37.027" viewBox="0 0 33.786 37.027"> <defs> <style>.cls-1{fill:#ffabaf}.cls-1,.cls-2,.cls-3{stroke:#050a4e;stroke-miterlimit:10;stroke-width:.4px}.cls-2{fill:#c7dcff}.cls-3{fill:#fff}</style> </defs> <g id="Group_78165" data-name="Group 78165" transform="translate(.201 .23)"> <g id="Group_29640" data-name="Group 29640"> <g id="Group_29639" data-name="Group 29639"> <path id="Path_29444" d="M1048.564 578.747c-3.2-4.547-7.568-5.011-9.128-3.17-1.251 1.474-1.1 4.914.438 8.108l9.059.526z" class="cls-1" data-name="Path 29444" transform="translate(-1032.684 -574.568)"/> <path id="Path_29445" d="M1057.337 578.747c3.2-4.547 7.568-5.011 9.128-3.17 1.251 1.474 1.1 4.914-.438 8.108l-9.058.526z" class="cls-1" data-name="Path 29445" transform="translate(-1038.989 -574.568)"/> <path id="Path_29446" d="M1055.365 585.754a5.127 5.127 0 0 1-1.834 0 1.347 1.347 0 0 1-1-.491 1.826 1.826 0 0 1-.415-1.179 11.494 11.494 0 0 1 0-3.295 1.866 1.866 0 0 1 .415-1.178 1.312 1.312 0 0 1 1-.491 7.549 7.549 0 0 1 1.834 0 1.345 1.345 0 0 1 1 .491 1.828 1.828 0 0 1 .417 1.178 11.736 11.736 0 0 1 0 3.295 1.977 1.977 0 0 1-.219.893 1.649 1.649 0 0 1-.2.288 1.483 1.483 0 0 1-.998.489z" class="cls-2" data-name="Path 29446" transform="translate(-1037.282 -576.111)"/> <path id="Path_29447" d="M1057.631 616.58c-3.239.25-6.688.395-10.328.388-3.432-.007-6.694-.149-9.764-.388a3.916 3.916 0 0 1-2.906-1.425 5.3 5.3 0 0 1-1.209-3.426c-.146-2.386-.233-4.942-.233-7.644 0-2.745.087-5.337.233-7.756a5.455 5.455 0 0 1 1.209-3.426 3.815 3.815 0 0 1 2.906-1.425h20.093c2.269.008 4.108 2.175 4.114 4.851.12 2.451.188 5.041.188 7.756 0 2.674-.07 5.225-.188 7.644a5.74 5.74 0 0 1-.692 2.684 4.747 4.747 0 0 1-.516.742 4.343 4.343 0 0 1-2.907 1.425z" class="cls-3" data-name="Path 29447" transform="translate(-1030.828 -580.37)"/> <path id="Path_29448" d="M1061.641 594.114c-4.69.294-9.592.466-14.688.48-5.564.014-10.9-.161-15.987-.48a1.14 1.14 0 0 1-.865-.448 1.722 1.722 0 0 1-.359-1.077 14.748 14.748 0 0 1 0-4.173 1.782 1.782 0 0 1 .359-1.077 1.113 1.113 0 0 1 .865-.449c4.866-.328 9.986-.516 15.338-.516s10.471.188 15.337.516a1.139 1.139 0 0 1 .864.449 1.726 1.726 0 0 1 .359 1.077q.1.909.113 1.827a19.133 19.133 0 0 1-.113 2.345 1.875 1.875 0 0 1-.186.806 1.519 1.519 0 0 1-.175.275 1.247 1.247 0 0 1-.862.445z" class="cls-3" data-name="Path 29448" transform="translate(-1029.594 -578.62)"/> <path id="Path_29449" d="M1057.07 594.551h-7.128a26.583 26.583 0 0 1 0-8.125h7.128a40.506 40.506 0 0 1 0 8.125z" class="cls-2" data-name="Path 29449" transform="translate(-1036.47 -578.637)"/> <path id="Path_29450" d="M1056.578 619.445h-5.127c-.167-3.44-.261-7.077-.25-10.893.01-3.4.1-6.649.25-9.747h5.127q.116 4.778.125 9.781.007 5.57-.125 10.859z" class="cls-2" data-name="Path 29450" transform="translate(-1037.009 -582.886)"/> </g> </g> </g></svg>