<svg xmlns="http://www.w3.org/2000/svg" width="149" height="169" viewBox="0 0 149 169">
    <defs>
        <clipPath id="clip-path">
            <path id="Rectangle_6623-2" fill="none" d="M0 0h149v139a30 30 0 0 1-30 30H0V0z" data-name="Rectangle 6623-2" transform="translate(2389.788 1122.281)"/>
        </clipPath>
        <style>
            .cls-3{fill:#fff}.cls-4{fill:#2d2d2d}.cls-6{fill:#ffabaf}.cls-7{fill:#474747}
        </style>
    </defs>
    <g id="Group_88714" clip-path="url(#clip-path)" data-name="Group 88714" transform="translate(-2389.788 -1122.281)">
        <path id="Path_183934" d="M2456 1186.716a31.943 31.943 0 0 1 13.981 17.734 25.778 25.778 0 0 1-.511 18.245 26.549 26.549 0 0 1-18.925 14.157 27.372 27.372 0 0 1-22.168-6.661h-19.95a41.675 41.675 0 0 0 16.709 17.389 41.211 41.211 0 0 0 18.245 5.117 45.031 45.031 0 0 0 30.346-10.571 40 40 0 0 0 13.639-22.5 40.881 40.881 0 0 0-3.242-24.209 50.777 50.777 0 0 0-16.709-21.311z" class="cls-3" data-name="Path 183934"/>
        <path id="Path_183935" d="M2444.724 1252.917c-.449 0-.9-.007-1.347-.02a41.183 41.183 0 0 1-35.126-22.616l-.148-.291h20.352l.057.051a27.1 27.1 0 0 0 22.006 6.612 26.48 26.48 0 0 0 18.775-14.048 25.556 25.556 0 0 0 .5-18.089 31.727 31.727 0 0 0-13.9-17.629l-.208-.125 11.7-12.925.145.107a50.985 50.985 0 0 1 16.775 21.4 40.9 40.9 0 0 1 3.254 24.32 40.351 40.351 0 0 1-13.71 22.62 45.163 45.163 0 0 1-29.125 10.633zm-35.967-22.526a40.779 40.779 0 0 0 34.635 22.106q.666.021 1.334.021a44.769 44.769 0 0 0 28.874-10.545 39.963 39.963 0 0 0 13.573-22.389 40.488 40.488 0 0 0-3.229-24.082 50.594 50.594 0 0 0-16.5-21.128l-11.13 12.3a32.109 32.109 0 0 1 13.86 17.719 25.958 25.958 0 0 1-.517 18.381 26.894 26.894 0 0 1-19.073 14.277 27.5 27.5 0 0 1-22.28-6.657z" class="cls-4" data-name="Path 183935"/>
        <path id="Path_183936" fill="#d1ed7a" d="M2464.013 1122.914c-2.448 1.347-2.448 3.856-4.561 8.739-3.221 7.445-7.061 10.452-11.374 15.756-13.415 16.5-6.961 25.148-20.717 41.78-5.242 6.336-9.13 8.657-8.612 13 .8 6.66 11.332 12.869 17.516 10.359 3.678-1.5 4.461-5.525 6.692-11.212 7.051-17.955 13.967-15.393 23.1-35 5.321-11.419 4.009-14.52 10.013-22.675 3.65-4.955 6.416-6.906 6.1-10.4-.623-6.867-12.587-13.41-18.157-10.347z" data-name="Path 183936"/>
        <path id="Path_183937" d="M2433.128 1213.31a15.646 15.646 0 0 1-7.73-2.323c-3.846-2.268-6.47-5.63-6.847-8.774-.388-3.242 1.641-5.421 4.712-8.72 1.175-1.263 2.508-2.694 3.944-4.431 6.91-8.355 8.731-14.8 10.493-21.028 1.744-6.165 3.546-12.539 10.223-20.751 1.106-1.36 2.181-2.569 3.22-3.739 3.081-3.466 5.741-6.459 8.126-11.97.649-1.5 1.091-2.76 1.482-3.869.877-2.494 1.406-4 3.165-4.966 2.552-1.4 6.661-.929 10.731 1.234 4.392 2.336 7.423 5.974 7.722 9.269.239 2.643-1.228 4.428-3.45 7.131-.8.979-1.716 2.087-2.688 3.406a35 35 0 0 0-5.829 11.865 85.5 85.5 0 0 1-4.164 10.777 60.65 60.65 0 0 1-12.2 17.989 46.759 46.759 0 0 0-10.9 17c-.4 1.024-.752 1.981-1.09 2.9-1.52 4.155-2.617 7.156-5.714 8.419a8.541 8.541 0 0 1-3.206.581zm30.981-90.221c-1.625.894-2.135 2.345-2.981 4.749-.392 1.115-.837 2.38-1.492 3.894-2.41 5.57-5.22 8.731-8.2 12.078-1.036 1.167-2.107 2.372-3.208 3.725-6.624 8.148-8.416 14.483-10.147 20.608-1.773 6.27-3.607 12.754-10.57 21.174-1.445 1.746-2.782 3.182-3.96 4.449-3.1 3.331-4.973 5.342-4.609 8.4.364 3.022 2.913 6.271 6.655 8.477s7.786 2.857 10.587 1.719c2.933-1.2 4-4.127 5.489-8.185.339-.927.689-1.886 1.093-2.914a47.066 47.066 0 0 1 10.976-17.124 60.328 60.328 0 0 0 12.128-17.887 85.018 85.018 0 0 0 4.146-10.731 35.776 35.776 0 0 1 5.888-11.978c.979-1.329 1.894-2.441 2.7-3.424 2.236-2.72 3.585-4.361 3.361-6.841-.287-3.164-3.236-6.678-7.511-8.952-3.95-2.1-7.916-2.576-10.351-1.237z" class="cls-4" data-name="Path 183937"/>
        <path id="Path_183938" d="M2456.123 1133.357c1.661-.366 2.824.124 13.425 6.215 6.889 3.947 7.624 4.441 8.183 5.629 1.761 3.722-1.315 7.624-7.034 17.327-11.4 19.312-17.071 28.966-18.349 31.839-1.381 3.083-2.959 7-6.588 8.183-2.959.974-5.8-.387-11.049-3-6.339-3.156-10.676-5.31-11.574-9.267-.594-2.614.629-4.606 3.774-9.91 6.512-10.987 11.308-19.378 12.21-20.97 1.958-3.453 3.512-6.416 8.5-15.217 4.579-8.109 5.902-10.249 8.502-10.829z" class="cls-3" data-name="Path 183938"/>
        <path id="Path_183939" d="M2443.807 1203.062c-2.491 0-5.221-1.36-9.185-3.333-6.494-3.234-10.763-5.359-11.681-9.4-.6-2.642.55-4.581 3.623-9.763l.175-.293c6.086-10.268 10.876-18.617 12.208-20.966.758-1.337 1.456-2.6 2.316-4.159 1.393-2.525 3.128-5.667 6.184-11.059 4.615-8.163 5.933-10.323 8.632-10.926 1.777-.39 3.048.193 13.567 6.237 6.991 4.005 7.685 4.486 8.264 5.718 1.538 3.248-.516 6.657-4.61 13.448-.743 1.233-1.557 2.582-2.432 4.066-11.171 18.932-17.059 28.944-18.339 31.818l-.211.474c-1.322 2.971-2.967 6.668-6.5 7.818a6.356 6.356 0 0 1-2.011.32zm12.36-69.51c-2.533.565-3.827 2.691-8.372 10.732-3.055 5.391-4.789 8.531-6.182 11.055-.861 1.559-1.559 2.824-2.318 4.163-1.333 2.351-6.124 10.7-12.212 20.973l-.174.294c-3.014 5.081-4.142 6.982-3.577 9.47.876 3.858 5.076 5.949 11.435 9.115 5.4 2.69 8.109 3.934 10.93 3.005 3.362-1.094 4.9-4.55 6.257-7.6l.211-.474c1.288-2.893 7.181-12.914 18.36-31.858.875-1.486 1.689-2.835 2.433-4.069 4.146-6.878 6.038-10.016 4.592-13.071-.53-1.129-1.212-1.595-8.1-5.541-10.694-6.145-11.72-6.54-13.282-6.194z" class="cls-4" data-name="Path 183939"/>
        <circle id="Ellipse_13882" cx="15.566" cy="15.566" r="15.566" class="cls-3" data-name="Ellipse 13882" transform="translate(2441.283 1161.777)"/>
        <path id="Path_183940" d="M2456.849 1193.109a15.766 15.766 0 1 1 15.766-15.766 15.784 15.784 0 0 1-15.766 15.766zm0-31.131a15.365 15.365 0 1 0 15.366 15.365 15.382 15.382 0 0 0-15.366-15.365z" class="cls-4" data-name="Path 183940"/>
        <circle id="Ellipse_13883" cx="8.439" cy="8.439" r="8.439" class="cls-6" data-name="Ellipse 13883" transform="translate(2448.41 1168.909)"/>
        <path id="Path_183941" d="M2456.849 1185.987a8.639 8.639 0 1 1 8.639-8.639 8.649 8.649 0 0 1-8.639 8.639zm0-16.878a8.239 8.239 0 1 0 8.239 8.239 8.248 8.248 0 0 0-8.239-8.239z" class="cls-4" data-name="Path 183941"/>
        <path id="Path_183942" d="M2394.916 1225.186a4.8 4.8 0 0 0 .059 6.778 1.9 1.9 0 0 0 .156.145c3.083 2.915 8.915 1.319 24.719 1.33 15.1 0 20.828 1.481 23.7-1.33a4.686 4.686 0 0 0 .076-6.627l-.114-.114c-3.018-2.908-9.033-1.222-24.422-1.271-15.29-.046-21.249-1.749-24.174 1.089z" class="cls-7" data-name="Path 183942"/>
        <path id="Path_183943" d="M2402.271 1234.063c-3.574 0-5.755-.37-7.278-1.809a1.964 1.964 0 0 1-.161-.15 5.009 5.009 0 0 1-.059-7.058c2.043-1.98 5.44-1.819 12.209-1.5 3.193.151 7.166.339 12.1.353 4.933.035 8.936-.149 12.143-.281 6.868-.283 10.308-.425 12.416 1.609l.117.115a4.892 4.892 0 0 1-.075 6.914c-2.062 2.019-5.552 1.888-12.5 1.636-3.045-.112-6.849-.261-11.494-.248-4.842 0-8.757.15-11.911.272-2.136.077-3.954.147-5.507.147zm-7.214-8.736a4.608 4.608 0 0 0 .058 6.494c.047.048.094.092.143.133 2.072 1.959 5.556 1.826 12.508 1.557 3.156-.121 7.076-.273 11.924-.273 4.682.01 8.462.136 11.509.248 6.839.25 10.272.377 12.211-1.52a4.491 4.491 0 0 0 .073-6.344l-.115-.115c-1.982-1.91-5.368-1.77-12.12-1.494-3.21.132-7.2.3-12.162.281-4.944-.014-8.923-.2-12.12-.354-6.653-.313-9.992-.47-11.909 1.387z" class="cls-4" data-name="Path 183943"/>
        <path id="Path_183944" d="M2391.716 1262.2a4.057 4.057 0 0 0-.418 4.745c3.747 5.949 23.394 1.757 59.736 2.182 25.552.3 42.257 2.676 45.579-2.465a3.73 3.73 0 0 0-.235-4.333c-4.348-5.628-23.238-.125-52.343-.194-29.186-.082-47.599-5.724-52.319.065z" class="cls-7" data-name="Path 183944"/>
        <path id="Path_183945" d="M2404.672 1270.367c-7.474 0-11.905-.718-13.543-3.318a4.249 4.249 0 0 1 .434-4.98c2.945-3.606 11.083-2.872 23.4-1.762 7.879.711 17.686 1.594 29.076 1.626h.544c11.233 0 20.974-.827 28.826-1.493 12.3-1.043 20.429-1.732 23.13 1.764a3.928 3.928 0 0 1 .245 4.563c-2.543 3.935-12.167 3.593-28.111 3.029-5.234-.186-11.167-.4-17.638-.472-13-.156-23.878.287-32.619.641-5.386.218-9.956.402-13.744.402zm-3.558-10.573c-4.551 0-7.694.632-9.243 2.53v.005a3.848 3.848 0 0 0-.4 4.511c2.342 3.719 11.6 3.345 26.926 2.726 8.748-.353 19.635-.793 32.64-.641 6.477.076 12.411.286 17.649.471 15.262.543 25.342.9 27.759-2.844a3.53 3.53 0 0 0-.222-4.1c-2.57-3.327-10.612-2.643-22.783-1.612-7.986.678-17.939 1.522-29.4 1.493-11.408-.031-21.224-.917-29.111-1.628-5.474-.493-10.111-.911-13.815-.911z" class="cls-4" data-name="Path 183945"/>
        <path id="Path_183946" d="M2420.109 1269.487a50 50 0 0 1 8.377-18.117c4.441-5.988 10.542-14.651 18.477-14.264 6.761.345 11.443 7.009 15.984 13.49a54.862 54.862 0 0 1 8.443 18.954z" class="cls-3" data-name="Path 183946"/>
        <path id="Path_183947" d="M2471.642 1269.75h-.252l-51.535-.063.059-.246a49.963 49.963 0 0 1 8.41-18.189l.489-.659c4.389-5.936 10.394-14.045 18.16-13.688 6.872.352 11.583 7.074 16.138 13.575a54.827 54.827 0 0 1 8.473 19.025zm-51.281-.462l50.776.062a54.425 54.425 0 0 0-8.354-18.64c-4.5-6.422-9.154-13.064-15.83-13.4-.168-.009-.335-.013-.5-.013-7.306 0-13.078 7.805-17.319 13.537l-.488.659a49.57 49.57 0 0 0-8.285 17.795z" class="cls-4" data-name="Path 183947"/>
        <circle id="Ellipse_13884" cx="10.4" cy="10.4" r="10.4" class="cls-3" data-name="Ellipse 13884" transform="translate(2435.71 1242.639)"/>
        <path id="Path_183948" d="M2446.109 1263.64a10.6 10.6 0 1 1 10.6-10.6 10.612 10.612 0 0 1-10.6 10.6zm0-20.8a10.2 10.2 0 1 0 10.2 10.2 10.211 10.211 0 0 0-10.2-10.201z" class="cls-4" data-name="Path 183948"/>
        <path id="Path_183949" d="M2446.279 1247.442a5.639 5.639 0 1 1-5.639 5.639 5.64 5.64 0 0 1 5.639-5.639z" class="cls-6" data-name="Path 183949"/>
        <path id="Path_183950" d="M2446.279 1258.921a5.84 5.84 0 1 1 5.839-5.84 5.848 5.848 0 0 1-5.839 5.84zm0-11.278a5.439 5.439 0 1 0 5.439 5.438 5.444 5.444 0 0 0-5.439-5.438z" class="cls-4" data-name="Path 183950"/>
        <path id="Path_183951" d="M2482.534 1228.134c.321 3.109.687 7.617.781 13.078a49.851 49.851 0 0 1-.781 13.856c-1.42 5.234-3.681 7.087-8.368 14.143a128.907 128.907 0 0 0-8.894 15.681 5.911 5.911 0 0 0-.454 4.971 6.052 6.052 0 0 0 4.338 3.527c3.5.287 8.452.663 14.431 1 .681.036 5.958.33 13.017.463a77.142 77.142 0 0 0 15.563-1.465 7.542 7.542 0 0 0 5.331-2.725 7.374 7.374 0 0 0 .091-6.055c-3.536-10.944-14.01-17.146-17.446-29.365a48.728 48.728 0 0 1-1.32-12.926 76.13 76.13 0 0 1 1.235-15z" class="cls-3" data-name="Path 183951"/>
        <path id="Path_183952" d="M2497.178 1295.006h-.575c-4.358-.083-8.8-.24-12.863-.455l-.161-.009c-4.8-.27-9.516-.6-14.435-1a6.208 6.208 0 0 1-4.463-3.617 6.046 6.046 0 0 1 .461-5.106 129.524 129.524 0 0 1 8.9-15.689c1.34-2.018 2.468-3.59 3.462-4.977 2.419-3.374 3.879-5.41 4.887-9.122a49.648 49.648 0 0 0 .775-13.8c-.076-4.389-.338-8.785-.78-13.076l-.016-.158.158-.007 17.712-.825-.034.186a76.119 76.119 0 0 0-1.231 14.969 48.6 48.6 0 0 0 1.314 12.894c1.794 6.375 5.545 11.145 9.172 15.757 3.385 4.3 6.582 8.368 8.271 13.6a7.508 7.508 0 0 1-.1 6.164l-.021.032a7.72 7.72 0 0 1-5.436 2.778 77.248 77.248 0 0 1-14.997 1.461zm-14.479-66.73c.434 4.25.691 8.6.766 12.933a49.954 49.954 0 0 1-.783 13.889c-1.025 3.774-2.5 5.827-4.935 9.228-.993 1.385-2.119 2.955-3.456 4.968a129.162 129.162 0 0 0-8.884 15.663 5.758 5.758 0 0 0-.447 4.856 5.9 5.9 0 0 0 4.227 3.431c4.9.4 9.617.726 14.409 1l.16.008c4.055.215 8.5.372 12.85.454a75.86 75.86 0 0 0 15.532-1.463 7.436 7.436 0 0 0 5.232-2.658 7.216 7.216 0 0 0 .081-5.914c-1.678-5.191-4.859-9.235-8.226-13.518-3.646-4.635-7.416-9.428-9.227-15.866a48.907 48.907 0 0 1-1.325-12.971 76.531 76.531 0 0 1 1.2-14.837z" class="cls-4" data-name="Path 183952"/>
        <path id="Path_183953" d="M2479.166 1222.875a4.293 4.293 0 0 0 .1 4.338c.769 1.211 2.289 2.016 11.676 2 9.336 0 10.835-.8 11.561-2a4.24 4.24 0 0 0-.021-4.238c-1.123-1.771-3.436-1.58-11.955-1.6-8.054-.007-10.294-.189-11.361 1.5z" class="cls-3" data-name="Path 183953"/>
        <path id="Path_183954" d="M2490.658 1229.363c-9.467 0-10.75-.859-11.519-2.07a4.448 4.448 0 0 1-.1-4.491v-.007c1.011-1.6 2.945-1.589 9.375-1.575.656 0 1.358.005 2.112.005H2493.021c6.547 0 8.539.014 9.587 1.669a4.4 4.4 0 0 1 .025 4.391c-.737 1.217-2.005 2.076-11.692 2.076zm-11.363-6.412a4.144 4.144 0 0 0 .1 4.183c.693 1.092 1.971 1.929 11.267 1.929h.28c9.511 0 10.773-.835 11.434-1.928a4.1 4.1 0 0 0-.023-4.084c-.958-1.511-2.912-1.524-9.333-1.524h-4.606c-6.298-.027-8.197-.032-9.119 1.424z" class="cls-4" data-name="Path 183954"/>
        <path id="Path_183955" d="M2495.791 1242.1h-7.971a.151.151 0 0 1 0-.3h7.971a.151.151 0 0 1 0 .3z" class="cls-4" data-name="Path 183955"/>
        <path id="Path_183956" d="M2495.791 1246.814h-7.971a.15.15 0 1 1 0-.3h7.971a.15.15 0 0 1 0 .3z" class="cls-4" data-name="Path 183956"/>
        <path id="Path_183957" d="M2495.791 1252.083h-7.971a.151.151 0 0 1 0-.3h7.971a.151.151 0 0 1 0 .3z" class="cls-4" data-name="Path 183957"/>
        <path id="Path_183958" d="M2495.791 1257.347h-7.971a.151.151 0 0 1 0-.3h7.971a.151.151 0 0 1 0 .3z" class="cls-4" data-name="Path 183958"/>
    </g>
</svg>
