<svg xmlns="http://www.w3.org/2000/svg" width="228.208" height="46.16"><defs><style>.prefix__cls-1{fill:#3675b0}.prefix__cls-3{fill:#3775af}.prefix__cls-4{fill:#ea1c30}</style></defs><g id="prefix__Artwork_7" data-name="Artwork 7" transform="translate(-50 -29)"><g id="prefix__Group_5" data-name="Group 5" transform="translate(50 29)"><path id="prefix__Path_1" d="M72.142 30.454a4.35 4.35 0 014.951-1.065c1.965.98 3.834 3.066 3.351 5.411 2.415-.391 4.514 1.429 5.5 3.476a4.328 4.328 0 01-1.113 4.859c-2.868 2.917-5.786 5.782-8.661 8.692q-.788-.768-1.566-1.547c2.66-2.783 5.446-5.447 8.137-8.2a3.716 3.716 0 001.346-2.593 2.926 2.926 0 00-1.955-2.644c-1.175-.469-2.352.3-3.163 1.1-2.812 2.75-5.551 5.568-8.354 8.324q-.8-.768-1.584-1.547c2.635-2.7 5.329-5.341 7.99-8.019a4.485 4.485 0 001.571-2.8 3.126 3.126 0 00-2.359-2.713 3.553 3.553 0 00-2.99 1.35q-4.1 4.1-8.193 8.2a10.343 10.343 0 00-2.2-.943q4.621-4.7 9.3-9.346" class="prefix__cls-1" data-name="Path 1" transform="translate(-51.467 -29)"/><path id="prefix__Path_2" d="M56.664 44.215c1.09-1.4 2.707-2.691 4.586-2.517a5.7 5.7 0 013.5 2.03q8.964 8.938 17.887 17.91c.9.894 2.122 1.909 3.476 1.443a3.04 3.04 0 002.04-2.786 4.205 4.205 0 00-1.544-2.632c-2.369-2.352-4.711-4.728-7.086-7.073-.246-.351-.832-.587-.74-1.083a7.959 7.959 0 011.492-1.384c2.569 2.612 5.178 5.18 7.753 7.783a6.24 6.24 0 002.191 1.606A2.825 2.825 0 0093.6 54.1a5.634 5.634 0 00-1.274-1.837c-2.727-2.746-5.5-5.457-8.2-8.229a4.961 4.961 0 00.844-2.046 5.874 5.874 0 011.044.824c2.773 2.806 5.621 5.543 8.381 8.365a4.406 4.406 0 011.179 4.77c-.956 2.083-3.091 4.017-5.545 3.571.482 2.732-1.929 5.182-4.436 5.782a4.92 4.92 0 01-4.2-1.744c-6.131-6.14-12.234-12.307-18.4-18.406a3.7 3.7 0 00-2.717-1.324 2.948 2.948 0 00-2.487 3.338 5.548 5.548 0 001.545 2.273c2.637 2.641 5.288 5.273 7.92 7.924q-.788.788-1.6 1.556c-2.615-2.634-5.247-5.256-7.868-7.887a4.814 4.814 0 00-2.757-1.659 3.178 3.178 0 00-2.762 2.1c-.4 1.307.485 2.471 1.344 3.347 2.71 2.724 5.43 5.431 8.143 8.151a10.662 10.662 0 00-.973 2.145c-2.661-2.72-5.388-5.374-8.078-8.062-1.136-1.11-2.438-2.286-2.661-3.952-.269-1.961 1.094-3.686 2.565-4.806a4.543 4.543 0 013.236-.841 4.179 4.179 0 01.828-3.239" data-name="Path 2" transform="translate(-50 -30.448)" fill="#e81a2f"/><path id="prefix__Path_3" d="M64.133 63.928c2.812-2.878 5.7-5.687 8.518-8.558a42.363 42.363 0 011.6 1.571c-2.674 2.713-5.388 5.391-8.072 8.095a5.771 5.771 0 00-1.321 1.882 2.8 2.8 0 003.117 3.456 4.325 4.325 0 002.185-1.385c2.688-2.685 5.361-5.382 8.062-8.052a50.128 50.128 0 011.593 1.57q-3.941 3.958-7.893 7.9a6.322 6.322 0 00-1.486 2.01 2.808 2.808 0 003.111 3.528 4.883 4.883 0 002.33-1.55c2.628-2.658 5.289-5.286 7.921-7.937a22.6 22.6 0 002.22.946q-4.119 4.115-8.216 8.259c-1.081 1.11-2.286 2.348-3.922 2.486-2.047.22-3.794-1.265-4.889-2.842a4.355 4.355 0 01-.614-2.867c-2.566.272-4.79-1.749-5.641-4.025a4.477 4.477 0 011.393-4.488" class="prefix__cls-1" data-name="Path 3" transform="translate(-51.434 -32.011)"/><path id="prefix__Path_4" d="M129.934 57.06c-.187-3.509-.411-7.727-.374-10.862h-.112c-.858 2.949-1.9 6.084-3.173 9.555l-4.442 12.206h-2.463l-4.07-11.981c-1.195-3.546-2.2-6.793-2.912-9.779h-.075c-.074 3.135-.261 7.353-.485 11.123l-.671 10.787h-3.1l1.754-25.158h4.143l4.293 12.168c1.045 3.1 1.9 5.86 2.538 8.473h.112c.634-2.538 1.531-5.3 2.65-8.473l4.48-12.168h4.143l1.568 25.158h-3.173z" class="prefix__cls-3" data-name="Path 4" transform="translate(-56.63 -30.593)"/><path id="prefix__Path_5" d="M144.486 60.535c.074 4.441 2.911 6.271 6.2 6.271a11.863 11.863 0 005-.934l.56 2.352a14.629 14.629 0 01-6.009 1.12c-5.562 0-8.884-3.658-8.884-9.107s3.209-9.743 8.473-9.743c5.9 0 7.466 5.189 7.466 8.511a12.634 12.634 0 01-.112 1.531zm9.63-2.352c.037-2.091-.858-5.338-4.554-5.338-3.322 0-4.778 3.061-5.038 5.338z" class="prefix__cls-3" data-name="Path 5" transform="translate(-60.432 -31.454)"/><path id="prefix__Path_6" d="M179.37 41.434V63.27c0 1.6.036 3.433.149 4.666h-2.949l-.149-3.136h-.075a6.682 6.682 0 01-6.159 3.546c-4.367 0-7.726-3.695-7.726-9.182-.038-6.009 3.7-9.7 8.1-9.7a6.041 6.041 0 015.45 2.762h.074V41.434zm-3.285 15.789a5.815 5.815 0 00-.149-1.381 4.831 4.831 0 00-4.741-3.807c-3.4 0-5.412 2.986-5.412 6.98 0 3.658 1.792 6.682 5.338 6.682a4.939 4.939 0 004.815-3.92 5.723 5.723 0 00.149-1.418z" class="prefix__cls-3" data-name="Path 6" transform="translate(-62.842 -30.42)"/><path id="prefix__Path_7" d="M191.307 44.961a2.034 2.034 0 01-4.069 0 2 2 0 012.053-2.052 1.949 1.949 0 012.015 2.052m-3.658 5.077h3.285V68.1h-3.285z" class="prefix__cls-3" data-name="Path 7" transform="translate(-65.671 -30.588)"/><path id="prefix__Path_8" d="M197.688 43.263a31.483 31.483 0 015.935-.523c3.248 0 5.338.56 6.906 1.829a5.275 5.275 0 012.091 4.441 5.972 5.972 0 01-4.255 5.524v.075a6.485 6.485 0 015.189 6.309 6.785 6.785 0 01-2.128 5.038c-1.755 1.605-4.592 2.352-8.7 2.352a37.883 37.883 0 01-5.039-.3zm3.248 10.3h2.949c3.433 0 5.45-1.792 5.45-4.218 0-2.949-2.24-4.1-5.525-4.1a13.971 13.971 0 00-2.874.223zm0 12.057a17.407 17.407 0 002.725.149c3.359 0 6.457-1.231 6.457-4.89 0-3.433-2.948-4.852-6.495-4.852h-2.687z" class="prefix__cls-4" data-name="Path 8" transform="translate(-66.865 -30.569)"/><path id="prefix__Path_9" d="M235.5 64.1c0 1.867.037 3.51.15 4.928h-2.912l-.188-2.949h-.074a6.8 6.8 0 01-5.973 3.36c-2.836 0-6.233-1.568-6.233-7.914V50.957h3.285v10c0 3.434 1.045 5.749 4.03 5.749a4.749 4.749 0 004.331-2.987 4.814 4.814 0 00.3-1.679V50.957h3.284z" class="prefix__cls-4" data-name="Path 9" transform="translate(-69.444 -31.507)"/><path id="prefix__Path_10" d="M259.053 41.434V63.27c0 1.6.037 3.433.149 4.666h-2.948L256.1 64.8h-.074a6.683 6.683 0 01-6.159 3.546c-4.367 0-7.727-3.695-7.727-9.182-.037-6.009 3.7-9.7 8.1-9.7a6.042 6.042 0 015.45 2.762h.074V41.434zm-3.285 15.789a5.817 5.817 0 00-.15-1.381 4.83 4.83 0 00-4.741-3.807c-3.4 0-5.411 2.986-5.411 6.98 0 3.658 1.791 6.682 5.338 6.682a4.938 4.938 0 004.814-3.92 5.722 5.722 0 00.15-1.418z" class="prefix__cls-4" data-name="Path 10" transform="translate(-71.941 -30.42)"/><path id="prefix__Path_11" d="M282.819 41.434V63.27c0 1.6.037 3.433.149 4.666h-2.948l-.15-3.136h-.07a6.683 6.683 0 01-6.159 3.546c-4.367 0-7.727-3.695-7.727-9.182-.037-6.009 3.7-9.7 8.1-9.7a6.041 6.041 0 015.45 2.762h.074V41.434zm-3.285 15.789a5.817 5.817 0 00-.15-1.381 4.83 4.83 0 00-4.741-3.807c-3.4 0-5.411 2.986-5.411 6.98 0 3.658 1.791 6.682 5.338 6.682a4.938 4.938 0 004.814-3.92 5.722 5.722 0 00.15-1.418z" class="prefix__cls-4" data-name="Path 11" transform="translate(-74.655 -30.42)"/><path id="prefix__Path_12" d="M292.038 50.957l3.956 10.676a67.757 67.757 0 011.157 3.695h.075c.336-1.082.709-2.463 1.157-3.77l3.583-10.6h3.471l-4.927 12.878c-2.352 6.2-3.957 9.368-6.2 11.309a8.89 8.89 0 01-4.031 2.128l-.821-2.762a8.716 8.716 0 002.874-1.6 9.971 9.971 0 002.762-3.658 2.373 2.373 0 00.261-.784 2.848 2.848 0 00-.224-.858l-6.681-16.648z" class="prefix__cls-4" data-name="Path 12" transform="translate(-77.229 -31.507)"/></g></g></svg>